<svg width="54" height="54" viewBox="0 0 54 54" fill="none" xmlns="http://www.w3.org/2000/svg">
<path d="M27 49.5C39.4264 49.5 49.5 39.4264 49.5 27C49.5 14.5736 39.4264 4.5 27 4.5C14.5736 4.5 4.5 14.5736 4.5 27C4.5 39.4264 14.5736 49.5 27 49.5Z" fill="#FECE2F" fill-opacity="0.4" stroke="#81531F" stroke-width="2" stroke-miterlimit="10"/>
<path d="M36.3461 35.3078C36.3461 30.7196 32.5801 27.0001 27.9346 27.0001H26.0653C21.4198 27.0001 17.6538 30.7196 17.6538 35.3078" stroke="#81531F" stroke-width="1.5" stroke-linecap="round" stroke-linejoin="round"/>
<path d="M22.8459 18.6924C22.8459 16.3983 24.7057 14.5386 26.9998 14.5386C29.2939 14.5386 31.1536 16.3983 31.1536 18.6924V19.7309C31.1536 22.025 29.2939 23.8847 26.9998 23.8847C24.7057 23.8847 22.8459 22.025 22.8459 19.7309V18.6924Z" stroke="#81531F" stroke-width="1.5" stroke-linecap="round" stroke-linejoin="round"/>
</svg>
