<svg width="155" height="67" viewBox="0 0 155 67" fill="none" xmlns="http://www.w3.org/2000/svg">
<path d="M44.375 11.1666C41.1073 11.1666 38.4583 13.6664 38.4583 16.75C38.4583 19.8335 41.1073 22.3333 44.375 22.3333C47.6427 22.3333 50.2916 19.8335 50.2916 16.75C50.2916 13.6664 47.6427 11.1666 44.375 11.1666Z" fill="#81531F"/>
<path d="M44.375 27.9166C41.1073 27.9166 38.4583 30.4164 38.4583 33.5C38.4583 36.5835 41.1073 39.0833 44.375 39.0833C47.6427 39.0833 50.2916 36.5835 50.2916 33.5C50.2916 30.4164 47.6427 27.9166 44.375 27.9166Z" fill="#81531F"/>
<path d="M44.375 44.6666C41.1073 44.6666 38.4583 47.1664 38.4583 50.25C38.4583 53.3335 41.1073 55.8333 44.375 55.8333C47.6427 55.8333 50.2916 53.3335 50.2916 50.25C50.2916 47.1664 47.6427 44.6666 44.375 44.6666Z" fill="#81531F"/>
<path d="M26.625 27.9166C23.3573 27.9166 20.7083 30.4164 20.7083 33.5C20.7083 36.5835 23.3573 39.0833 26.625 39.0833C29.8927 39.0833 32.5416 36.5835 32.5416 33.5C32.5416 30.4164 29.8927 27.9166 26.625 27.9166Z" fill="#81531F"/>
<path d="M26.625 44.6666C23.3573 44.6666 20.7083 47.1664 20.7083 50.25C20.7083 53.3335 23.3573 55.8333 26.625 55.8333C29.8927 55.8333 32.5416 53.3335 32.5416 50.25C32.5416 47.1664 29.8927 44.6666 26.625 44.6666Z" fill="#81531F"/>
<path d="M26.625 11.1666C23.3573 11.1666 20.7083 13.6664 20.7083 16.75C20.7083 19.8335 23.3573 22.3333 26.625 22.3333C29.8927 22.3333 32.5416 19.8335 32.5416 16.75C32.5416 13.6664 29.8927 11.1666 26.625 11.1666Z" fill="#81531F"/>
<path d="M66.936 43.224C66.424 43.224 66.0293 43.0853 65.752 42.808C65.4747 42.5093 65.336 42.104 65.336 41.592V28.792C65.336 28.2587 65.4747 27.8533 65.752 27.576C66.0293 27.2987 66.4133 27.16 66.904 27.16C67.416 27.16 67.8 27.2987 68.056 27.576C68.3333 27.8533 68.472 28.2587 68.472 28.792V31.416L68.12 30.712C68.5467 29.5813 69.208 28.696 70.104 28.056C71 27.416 72.0773 27.096 73.336 27.096C74.6373 27.096 75.6933 27.4053 76.504 28.024C77.3147 28.6427 77.8693 29.592 78.168 30.872H77.72C78.1253 29.6987 78.8187 28.7813 79.8 28.12C80.7813 27.4373 81.9227 27.096 83.224 27.096C84.4187 27.096 85.4 27.3307 86.168 27.8C86.936 28.248 87.512 28.9413 87.896 29.88C88.28 30.7973 88.472 31.96 88.472 33.368V41.592C88.472 42.104 88.3227 42.5093 88.024 42.808C87.7467 43.0853 87.352 43.224 86.84 43.224C86.328 43.224 85.9333 43.0853 85.656 42.808C85.3787 42.5093 85.24 42.104 85.24 41.592V33.528C85.24 32.2053 85.0053 31.2347 84.536 30.616C84.088 29.9973 83.3413 29.688 82.296 29.688C81.1227 29.688 80.1947 30.0933 79.512 30.904C78.8293 31.7147 78.488 32.8347 78.488 34.264V41.592C78.488 42.104 78.3493 42.5093 78.072 42.808C77.7947 43.0853 77.4 43.224 76.888 43.224C76.376 43.224 75.9707 43.0853 75.672 42.808C75.3947 42.5093 75.256 42.104 75.256 41.592V33.528C75.256 32.2053 75.032 31.2347 74.584 30.616C74.136 29.9973 73.3893 29.688 72.344 29.688C71.1707 29.688 70.2427 30.0933 69.56 30.904C68.8987 31.7147 68.568 32.8347 68.568 34.264V41.592C68.568 42.68 68.024 43.224 66.936 43.224ZM100.319 43.288C98.6121 43.288 97.1401 42.968 95.9028 42.328C94.6868 41.6667 93.7374 40.7387 93.0548 39.544C92.3934 38.328 92.0628 36.888 92.0628 35.224C92.0628 33.6027 92.3934 32.184 93.0548 30.968C93.7161 29.752 94.6228 28.8027 95.7748 28.12C96.9268 27.4373 98.2388 27.096 99.7108 27.096C100.799 27.096 101.769 27.2773 102.623 27.64C103.476 27.9813 104.201 28.4933 104.799 29.176C105.417 29.8373 105.876 30.648 106.175 31.608C106.495 32.568 106.655 33.6453 106.655 34.84C106.655 35.2027 106.548 35.48 106.335 35.672C106.121 35.8427 105.801 35.928 105.375 35.928H94.6228V33.944H104.479L103.935 34.392C103.935 33.3253 103.775 32.4187 103.455 31.672C103.156 30.9253 102.697 30.36 102.079 29.976C101.481 29.5707 100.735 29.368 99.8388 29.368C98.8361 29.368 97.9828 29.6027 97.2788 30.072C96.5961 30.5413 96.0734 31.192 95.7108 32.024C95.3481 32.856 95.1668 33.8267 95.1668 34.936V35.128C95.1668 37.0053 95.6041 38.424 96.4788 39.384C97.3748 40.3227 98.6654 40.792 100.351 40.792C100.991 40.792 101.663 40.7067 102.367 40.536C103.092 40.3653 103.775 40.0773 104.415 39.672C104.777 39.4587 105.097 39.3627 105.375 39.384C105.673 39.4053 105.908 39.5013 106.079 39.672C106.271 39.8427 106.388 40.056 106.431 40.312C106.473 40.568 106.431 40.8347 106.303 41.112C106.175 41.368 105.951 41.6027 105.631 41.816C104.905 42.3067 104.063 42.68 103.103 42.936C102.143 43.1707 101.215 43.288 100.319 43.288ZM111.778 43.224C111.266 43.224 110.872 43.0853 110.594 42.808C110.317 42.5093 110.178 42.104 110.178 41.592V28.792C110.178 28.2587 110.317 27.8533 110.594 27.576C110.872 27.2987 111.256 27.16 111.746 27.16C112.258 27.16 112.642 27.2987 112.898 27.576C113.176 27.8533 113.314 28.2587 113.314 28.792V31.288L112.962 30.712C113.432 29.5173 114.168 28.6213 115.17 28.024C116.173 27.4053 117.325 27.096 118.626 27.096C119.864 27.096 120.888 27.3307 121.698 27.8C122.53 28.248 123.149 28.9413 123.554 29.88C123.96 30.7973 124.162 31.96 124.162 33.368V41.592C124.162 42.104 124.024 42.5093 123.746 42.808C123.469 43.0853 123.074 43.224 122.562 43.224C122.029 43.224 121.624 43.0853 121.346 42.808C121.069 42.5093 120.93 42.104 120.93 41.592V33.56C120.93 32.216 120.664 31.2347 120.13 30.616C119.618 29.9973 118.808 29.688 117.698 29.688C116.397 29.688 115.352 30.0933 114.562 30.904C113.794 31.7147 113.41 32.8027 113.41 34.168V41.592C113.41 42.68 112.866 43.224 111.778 43.224ZM134.184 43.288C132.925 43.288 131.869 43.0533 131.016 42.584C130.184 42.1147 129.554 41.4213 129.128 40.504C128.722 39.5653 128.52 38.392 128.52 36.984V28.792C128.52 28.2373 128.658 27.832 128.936 27.576C129.213 27.2987 129.608 27.16 130.12 27.16C130.632 27.16 131.026 27.2987 131.304 27.576C131.602 27.832 131.752 28.2373 131.752 28.792V37.016C131.752 38.2747 132.008 39.2027 132.52 39.8C133.032 40.3973 133.842 40.696 134.952 40.696C136.168 40.696 137.149 40.2907 137.896 39.48C138.664 38.648 139.048 37.56 139.048 36.216V28.792C139.048 28.2373 139.186 27.832 139.464 27.576C139.741 27.2987 140.146 27.16 140.68 27.16C141.192 27.16 141.586 27.2987 141.864 27.576C142.141 27.832 142.28 28.2373 142.28 28.792V41.592C142.28 42.68 141.757 43.224 140.712 43.224C140.221 43.224 139.837 43.0853 139.56 42.808C139.282 42.5093 139.144 42.104 139.144 41.592V38.872L139.56 39.576C139.133 40.7707 138.45 41.688 137.512 42.328C136.573 42.968 135.464 43.288 134.184 43.288Z" fill="#81531F"/>
</svg>
