<svg width="330" height="27" viewBox="0 0 330 27" fill="none" xmlns="http://www.w3.org/2000/svg">
<path d="M3.4 26.324C2.392 26.324 1.624 26.06 1.096 25.532C0.568 25.004 0.304 24.224 0.304 23.192V3.572C0.304 2.516 0.568 1.712 1.096 1.16C1.624 0.583998 2.32 0.295998 3.184 0.295998C3.952 0.295998 4.552 0.439999 4.984 0.727999C5.416 1.016 5.896 1.496 6.424 2.168L17.836 16.424H16.828V3.392C16.828 2.384 17.08 1.616 17.584 1.088C18.112 0.559999 18.88 0.295998 19.888 0.295998C20.896 0.295998 21.652 0.559999 22.156 1.088C22.684 1.616 22.948 2.384 22.948 3.392V23.336C22.948 24.248 22.708 24.98 22.228 25.532C21.748 26.06 21.1 26.324 20.284 26.324C19.468 26.324 18.82 26.18 18.34 25.892C17.884 25.58 17.392 25.1 16.864 24.452L5.452 10.16H6.46V23.192C6.46 24.224 6.196 25.004 5.668 25.532C5.164 26.06 4.408 26.324 3.4 26.324ZM36.8013 26C35.6733 26 34.8093 25.712 34.2093 25.136C33.6333 24.536 33.3453 23.684 33.3453 22.58V4.04C33.3453 2.936 33.6333 2.096 34.2093 1.52C34.8093 0.919999 35.6733 0.619998 36.8013 0.619998H49.0053C49.8693 0.619998 50.5173 0.835999 50.9493 1.268C51.3813 1.7 51.5973 2.324 51.5973 3.14C51.5973 3.98 51.3813 4.628 50.9493 5.084C50.5173 5.516 49.8693 5.732 49.0053 5.732H39.6813V10.556H48.2133C49.0533 10.556 49.6893 10.772 50.1213 11.204C50.5773 11.636 50.8053 12.272 50.8053 13.112C50.8053 13.952 50.5773 14.588 50.1213 15.02C49.6893 15.452 49.0533 15.668 48.2133 15.668H39.6813V20.888H49.0053C49.8693 20.888 50.5173 21.116 50.9493 21.572C51.3813 22.004 51.5973 22.628 51.5973 23.444C51.5973 24.284 51.3813 24.92 50.9493 25.352C50.5173 25.784 49.8693 26 49.0053 26H36.8013ZM72.3768 26.324C71.4648 26.324 70.7208 26.132 70.1448 25.748C69.5928 25.364 69.1248 24.752 68.7408 23.912L60.0288 4.688C59.6448 3.848 59.5248 3.092 59.6688 2.42C59.8128 1.748 60.1488 1.232 60.6768 0.872C61.2048 0.487999 61.8648 0.295998 62.6568 0.295998C63.6408 0.295998 64.3728 0.511998 64.8528 0.943999C65.3568 1.376 65.7888 2.012 66.1488 2.852L73.4928 19.844H71.4768L78.8208 2.816C79.1808 1.976 79.6128 1.352 80.1168 0.943999C80.6208 0.511998 81.3288 0.295998 82.2408 0.295998C82.9848 0.295998 83.6088 0.487999 84.1128 0.872C84.6168 1.232 84.9288 1.748 85.0488 2.42C85.1928 3.092 85.0728 3.848 84.6888 4.688L75.9408 23.912C75.5808 24.752 75.1248 25.364 74.5728 25.748C74.0208 26.132 73.2888 26.324 72.3768 26.324ZM97.2236 26C96.0956 26 95.2316 25.712 94.6316 25.136C94.0556 24.536 93.7676 23.684 93.7676 22.58V4.04C93.7676 2.936 94.0556 2.096 94.6316 1.52C95.2316 0.919999 96.0956 0.619998 97.2236 0.619998H109.428C110.292 0.619998 110.94 0.835999 111.372 1.268C111.804 1.7 112.02 2.324 112.02 3.14C112.02 3.98 111.804 4.628 111.372 5.084C110.94 5.516 110.292 5.732 109.428 5.732H100.104V10.556H108.636C109.476 10.556 110.112 10.772 110.544 11.204C111 11.636 111.228 12.272 111.228 13.112C111.228 13.952 111 14.588 110.544 15.02C110.112 15.452 109.476 15.668 108.636 15.668H100.104V20.888H109.428C110.292 20.888 110.94 21.116 111.372 21.572C111.804 22.004 112.02 22.628 112.02 23.444C112.02 24.284 111.804 24.92 111.372 25.352C110.94 25.784 110.292 26 109.428 26H97.2236ZM124.953 26.324C123.897 26.324 123.081 26.036 122.505 25.46C121.929 24.86 121.641 24.032 121.641 22.976V3.968C121.641 2.888 121.929 2.06 122.505 1.484C123.105 0.907998 123.933 0.619998 124.989 0.619998H133.845C136.725 0.619998 138.945 1.328 140.505 2.744C142.089 4.136 142.881 6.08 142.881 8.576C142.881 10.184 142.521 11.588 141.801 12.788C141.105 13.964 140.085 14.876 138.741 15.524C137.421 16.148 135.789 16.46 133.845 16.46L134.133 15.812H135.861C136.893 15.812 137.805 16.064 138.597 16.568C139.389 17.048 140.049 17.792 140.577 18.8L142.377 22.04C142.761 22.736 142.941 23.42 142.917 24.092C142.893 24.74 142.629 25.28 142.125 25.712C141.645 26.12 140.937 26.324 140.001 26.324C139.065 26.324 138.297 26.132 137.697 25.748C137.121 25.364 136.605 24.764 136.149 23.948L132.873 17.936C132.585 17.408 132.213 17.048 131.757 16.856C131.325 16.64 130.821 16.532 130.245 16.532H128.265V22.976C128.265 24.032 127.989 24.86 127.437 25.46C126.885 26.036 126.057 26.324 124.953 26.324ZM128.265 11.852H132.657C133.929 11.852 134.901 11.6 135.573 11.096C136.245 10.592 136.581 9.812 136.581 8.756C136.581 7.748 136.245 6.992 135.573 6.488C134.901 5.96 133.929 5.696 132.657 5.696H128.265V11.852ZM156.205 11.492C155.821 12.02 155.389 12.308 154.909 12.356C154.453 12.404 154.057 12.308 153.721 12.068C153.385 11.828 153.193 11.492 153.145 11.06C153.097 10.604 153.301 10.112 153.757 9.584C154.357 8.888 154.753 8.192 154.945 7.496C155.137 6.8 155.233 6.176 155.233 5.624L155.449 7.388C154.345 7.388 153.457 7.076 152.785 6.452C152.113 5.828 151.777 4.976 151.777 3.896C151.777 2.84 152.089 2 152.713 1.376C153.361 0.727999 154.225 0.403999 155.305 0.403999C156.433 0.403999 157.309 0.787999 157.933 1.556C158.557 2.3 158.869 3.344 158.869 4.688C158.869 5.36 158.797 6.044 158.653 6.74C158.533 7.436 158.281 8.18 157.897 8.972C157.537 9.74 156.973 10.58 156.205 11.492ZM177.89 26.396C176.93 26.396 175.922 26.324 174.866 26.18C173.834 26.06 172.85 25.868 171.914 25.604C170.978 25.34 170.138 25.028 169.394 24.668C168.746 24.356 168.29 23.948 168.026 23.444C167.762 22.916 167.666 22.364 167.738 21.788C167.81 21.212 168.014 20.708 168.35 20.276C168.686 19.82 169.13 19.52 169.682 19.376C170.234 19.208 170.858 19.28 171.554 19.592C172.466 20.024 173.498 20.36 174.65 20.6C175.802 20.84 176.882 20.96 177.89 20.96C179.474 20.96 180.578 20.756 181.202 20.348C181.85 19.916 182.174 19.388 182.174 18.764C182.174 18.212 181.946 17.768 181.49 17.432C181.058 17.096 180.278 16.808 179.15 16.568L174.938 15.668C172.634 15.188 170.918 14.348 169.79 13.148C168.662 11.948 168.098 10.4 168.098 8.504C168.098 7.256 168.35 6.128 168.854 5.12C169.382 4.088 170.114 3.212 171.05 2.492C172.01 1.772 173.138 1.22 174.434 0.835998C175.754 0.427999 177.218 0.223999 178.826 0.223999C180.074 0.223999 181.334 0.367999 182.606 0.655998C183.902 0.919999 185.018 1.328 185.954 1.88C186.506 2.168 186.902 2.564 187.142 3.068C187.382 3.572 187.478 4.1 187.43 4.652C187.382 5.18 187.19 5.648 186.854 6.056C186.542 6.464 186.11 6.74 185.558 6.884C185.03 7.004 184.394 6.908 183.65 6.596C182.954 6.284 182.162 6.056 181.274 5.912C180.41 5.744 179.57 5.66 178.754 5.66C177.866 5.66 177.11 5.768 176.486 5.984C175.862 6.176 175.382 6.464 175.046 6.848C174.734 7.232 174.578 7.676 174.578 8.18C174.578 8.684 174.782 9.116 175.19 9.476C175.622 9.812 176.402 10.1 177.53 10.34L181.706 11.24C184.034 11.744 185.774 12.572 186.926 13.724C188.078 14.876 188.654 16.376 188.654 18.224C188.654 19.472 188.402 20.6 187.898 21.608C187.394 22.616 186.674 23.48 185.738 24.2C184.802 24.896 183.674 25.436 182.354 25.82C181.034 26.204 179.546 26.396 177.89 26.396ZM200.547 26C199.491 26 198.723 25.76 198.243 25.28C197.787 24.776 197.559 24.044 197.559 23.084C197.559 22.412 197.703 21.812 197.991 21.284C198.303 20.756 198.699 20.24 199.179 19.736L205.479 13.148C206.415 12.14 207.075 11.276 207.459 10.556C207.867 9.836 208.071 9.116 208.071 8.396C208.071 7.484 207.771 6.8 207.171 6.344C206.571 5.888 205.707 5.66 204.579 5.66C204.003 5.66 203.391 5.744 202.743 5.912C202.095 6.056 201.399 6.32 200.655 6.704C200.007 6.992 199.419 7.076 198.891 6.956C198.387 6.836 197.955 6.572 197.595 6.164C197.259 5.756 197.043 5.288 196.947 4.76C196.875 4.232 196.959 3.716 197.199 3.212C197.439 2.684 197.871 2.252 198.495 1.916C199.599 1.316 200.739 0.883999 201.915 0.619998C203.115 0.355999 204.315 0.223999 205.515 0.223999C207.483 0.223999 209.127 0.511999 210.447 1.088C211.791 1.664 212.811 2.504 213.507 3.608C214.203 4.688 214.551 6.032 214.551 7.64C214.551 8.648 214.395 9.632 214.083 10.592C213.795 11.552 213.315 12.512 212.643 13.472C211.995 14.432 211.119 15.452 210.015 16.532L204.183 22.292V20.636H213.075C213.963 20.636 214.635 20.864 215.091 21.32C215.571 21.776 215.811 22.436 215.811 23.3C215.811 24.164 215.571 24.836 215.091 25.316C214.635 25.772 213.963 26 213.075 26H200.547ZM228.361 26C227.305 26 226.477 25.712 225.877 25.136C225.301 24.536 225.013 23.708 225.013 22.652V3.932C225.013 2.852 225.301 2.024 225.877 1.448C226.453 0.871999 227.269 0.583999 228.325 0.583999C229.405 0.583999 230.221 0.871999 230.773 1.448C231.349 2.024 231.637 2.852 231.637 3.932V20.492H240.421C241.333 20.492 242.029 20.732 242.509 21.212C243.013 21.668 243.265 22.34 243.265 23.228C243.265 24.116 243.013 24.8 242.509 25.28C242.029 25.76 241.333 26 240.421 26H228.361ZM252.703 26.324C251.959 26.324 251.335 26.156 250.831 25.82C250.327 25.46 250.015 24.98 249.895 24.38C249.775 23.756 249.883 23.06 250.219 22.292L259.183 2.996C259.615 2.06 260.143 1.376 260.767 0.943999C261.415 0.511998 262.147 0.295998 262.963 0.295998C263.779 0.295998 264.487 0.511998 265.087 0.943999C265.711 1.376 266.251 2.06 266.707 2.996L275.671 22.292C276.055 23.06 276.187 23.756 276.067 24.38C275.971 25.004 275.671 25.484 275.167 25.82C274.687 26.156 274.087 26.324 273.367 26.324C272.407 26.324 271.663 26.108 271.135 25.676C270.631 25.244 270.175 24.548 269.767 23.588L267.823 19.016L270.343 20.852H255.511L258.067 19.016L256.123 23.588C255.691 24.548 255.247 25.244 254.791 25.676C254.335 26.108 253.639 26.324 252.703 26.324ZM262.891 7.532L258.715 17.504L257.707 15.776H268.183L267.175 17.504L262.963 7.532H262.891ZM291.172 26.324C290.116 26.324 289.3 26.036 288.724 25.46C288.148 24.86 287.86 24.032 287.86 22.976V6.02H282.208C281.32 6.02 280.636 5.792 280.156 5.336C279.7 4.856 279.472 4.184 279.472 3.32C279.472 2.432 279.7 1.76 280.156 1.304C280.636 0.847998 281.32 0.619998 282.208 0.619998H300.136C301.024 0.619998 301.696 0.847998 302.152 1.304C302.632 1.76 302.872 2.432 302.872 3.32C302.872 4.184 302.632 4.856 302.152 5.336C301.696 5.792 301.024 6.02 300.136 6.02H294.484V22.976C294.484 24.032 294.208 24.86 293.656 25.46C293.104 26.036 292.276 26.324 291.172 26.324ZM314.268 26C313.14 26 312.276 25.712 311.676 25.136C311.1 24.536 310.812 23.684 310.812 22.58V4.04C310.812 2.936 311.1 2.096 311.676 1.52C312.276 0.919999 313.14 0.619998 314.268 0.619998H326.472C327.336 0.619998 327.984 0.835999 328.416 1.268C328.848 1.7 329.064 2.324 329.064 3.14C329.064 3.98 328.848 4.628 328.416 5.084C327.984 5.516 327.336 5.732 326.472 5.732H317.148V10.556H325.68C326.52 10.556 327.156 10.772 327.588 11.204C328.044 11.636 328.272 12.272 328.272 13.112C328.272 13.952 328.044 14.588 327.588 15.02C327.156 15.452 326.52 15.668 325.68 15.668H317.148V20.888H326.472C327.336 20.888 327.984 21.116 328.416 21.572C328.848 22.004 329.064 22.628 329.064 23.444C329.064 24.284 328.848 24.92 328.416 25.352C327.984 25.784 327.336 26 326.472 26H314.268Z" fill="#F1E8B0"/>
</svg>
