<svg width="349" height="36" viewBox="0 0 349 36" fill="none" xmlns="http://www.w3.org/2000/svg">
<path d="M3.864 35.432C2.744 35.432 1.88 35.128 1.272 34.52C0.696 33.88 0.408 32.984 0.408 31.832V4.472C0.408 3.256 0.696 2.328 1.272 1.688C1.88 1.048 2.68 0.727998 3.672 0.727998C4.536 0.727998 5.192 0.903998 5.64 1.256C6.12 1.576 6.664 2.12 7.272 2.888L24.12 24.344H22.824V4.28C22.824 3.16 23.112 2.296 23.688 1.688C24.296 1.048 25.16 0.727998 26.28 0.727998C27.4 0.727998 28.248 1.048 28.824 1.688C29.432 2.296 29.736 3.16 29.736 4.28V31.976C29.736 33.032 29.464 33.88 28.92 34.52C28.376 35.128 27.64 35.432 26.712 35.432C25.816 35.432 25.096 35.256 24.552 34.904C24.04 34.552 23.48 33.992 22.872 33.224L6.072 11.768H7.32V31.832C7.32 32.984 7.032 33.88 6.456 34.52C5.88 35.128 5.016 35.432 3.864 35.432ZM40.4366 35C39.1886 35 38.2286 34.664 37.5566 33.992C36.8846 33.32 36.5486 32.36 36.5486 31.112V5.048C36.5486 3.8 36.8846 2.84 37.5566 2.168C38.2286 1.496 39.1886 1.16 40.4366 1.16H57.1886C58.1486 1.16 58.8686 1.416 59.3486 1.928C59.8606 2.408 60.1166 3.112 60.1166 4.04C60.1166 5 59.8606 5.736 59.3486 6.248C58.8686 6.728 58.1486 6.968 57.1886 6.968H43.6526V14.888H56.0846C57.0766 14.888 57.8126 15.144 58.2926 15.656C58.8046 16.136 59.0606 16.856 59.0606 17.816C59.0606 18.776 58.8046 19.512 58.2926 20.024C57.8126 20.504 57.0766 20.744 56.0846 20.744H43.6526V29.192H57.1886C58.1486 29.192 58.8686 29.448 59.3486 29.96C59.8606 30.44 60.1166 31.144 60.1166 32.072C60.1166 33.032 59.8606 33.768 59.3486 34.28C58.8686 34.76 58.1486 35 57.1886 35H40.4366ZM79.6751 35.432C78.6511 35.432 77.8031 35.208 77.1311 34.76C76.4911 34.28 75.9631 33.56 75.5471 32.6L63.4511 5.72C63.0031 4.76 62.8751 3.912 63.0671 3.176C63.2591 2.408 63.6591 1.816 64.2671 1.4C64.8751 0.951998 65.6111 0.727998 66.4751 0.727998C67.5631 0.727998 68.3951 0.983998 68.9711 1.496C69.5471 1.976 70.0271 2.696 70.4111 3.656L81.0191 28.184H78.6191L89.2271 3.608C89.6431 2.648 90.1391 1.928 90.7151 1.448C91.2911 0.967998 92.0911 0.727998 93.1151 0.727998C93.9791 0.727998 94.6831 0.951998 95.2271 1.4C95.8031 1.816 96.1551 2.408 96.2831 3.176C96.4431 3.912 96.3151 4.76 95.8991 5.72L83.8031 32.6C83.3551 33.56 82.8111 34.28 82.1711 34.76C81.5631 35.208 80.7311 35.432 79.6751 35.432ZM104.374 35C103.126 35 102.166 34.664 101.494 33.992C100.822 33.32 100.486 32.36 100.486 31.112V5.048C100.486 3.8 100.822 2.84 101.494 2.168C102.166 1.496 103.126 1.16 104.374 1.16H121.126C122.086 1.16 122.806 1.416 123.286 1.928C123.798 2.408 124.054 3.112 124.054 4.04C124.054 5 123.798 5.736 123.286 6.248C122.806 6.728 122.086 6.968 121.126 6.968H107.59V14.888H120.022C121.014 14.888 121.75 15.144 122.23 15.656C122.742 16.136 122.998 16.856 122.998 17.816C122.998 18.776 122.742 19.512 122.23 20.024C121.75 20.504 121.014 20.744 120.022 20.744H107.59V29.192H121.126C122.086 29.192 122.806 29.448 123.286 29.96C123.798 30.44 124.054 31.144 124.054 32.072C124.054 33.032 123.798 33.768 123.286 34.28C122.806 34.76 122.086 35 121.126 35H104.374ZM133.293 35.432C132.077 35.432 131.149 35.096 130.509 34.424C129.869 33.752 129.549 32.808 129.549 31.592V4.952C129.549 3.704 129.869 2.76 130.509 2.12C131.181 1.48 132.125 1.16 133.341 1.16H145.005C148.781 1.16 151.693 2.072 153.741 3.896C155.789 5.72 156.813 8.264 156.813 11.528C156.813 13.64 156.349 15.464 155.421 17C154.493 18.536 153.149 19.72 151.389 20.552C149.661 21.384 147.533 21.8 145.005 21.8L145.389 20.984H147.357C148.701 20.984 149.869 21.32 150.861 21.992C151.885 22.632 152.765 23.624 153.501 24.968L156.477 30.488C156.925 31.288 157.133 32.072 157.101 32.84C157.069 33.608 156.781 34.232 156.237 34.712C155.693 35.192 154.893 35.432 153.837 35.432C152.781 35.432 151.917 35.208 151.245 34.76C150.605 34.312 150.029 33.624 149.517 32.696L144.909 24.2C144.429 23.304 143.837 22.696 143.133 22.376C142.461 22.056 141.629 21.896 140.637 21.896H136.989V31.592C136.989 32.808 136.669 33.752 136.029 34.424C135.421 35.096 134.509 35.432 133.293 35.432ZM136.989 16.52H143.661C145.645 16.52 147.133 16.12 148.125 15.32C149.149 14.52 149.661 13.32 149.661 11.72C149.661 10.152 149.149 8.968 148.125 8.168C147.133 7.368 145.645 6.968 143.661 6.968H136.989V16.52ZM166.717 14.264C166.237 14.872 165.725 15.208 165.181 15.272C164.637 15.336 164.157 15.24 163.741 14.984C163.357 14.696 163.149 14.28 163.117 13.736C163.085 13.192 163.325 12.616 163.837 12.008C164.541 11.144 165.021 10.28 165.277 9.416C165.533 8.552 165.661 7.784 165.661 7.112L165.901 9.08C164.621 9.08 163.581 8.712 162.781 7.976C161.981 7.24 161.581 6.248 161.581 5C161.581 3.784 161.949 2.808 162.685 2.072C163.421 1.304 164.429 0.919998 165.709 0.919998C167.021 0.919998 168.045 1.352 168.781 2.216C169.517 3.08 169.885 4.312 169.885 5.912C169.885 6.744 169.805 7.608 169.645 8.504C169.485 9.368 169.181 10.28 168.733 11.24C168.285 12.168 167.613 13.176 166.717 14.264ZM187.676 35.528C186.332 35.528 184.956 35.416 183.548 35.192C182.172 35 180.844 34.712 179.564 34.328C178.316 33.944 177.196 33.464 176.204 32.888C175.5 32.504 175.004 32.008 174.716 31.4C174.428 30.76 174.316 30.12 174.38 29.48C174.476 28.84 174.716 28.28 175.1 27.8C175.516 27.288 176.028 26.968 176.636 26.84C177.276 26.68 177.98 26.792 178.748 27.176C180.06 27.912 181.484 28.456 183.02 28.808C184.588 29.16 186.14 29.336 187.676 29.336C190.012 29.336 191.676 28.984 192.668 28.28C193.66 27.544 194.156 26.632 194.156 25.544C194.156 24.616 193.804 23.88 193.1 23.336C192.396 22.792 191.164 22.328 189.404 21.944L183.98 20.792C180.908 20.152 178.62 19.064 177.116 17.528C175.644 15.96 174.908 13.912 174.908 11.384C174.908 9.784 175.244 8.328 175.916 7.016C176.588 5.704 177.532 4.568 178.748 3.608C179.964 2.648 181.404 1.912 183.068 1.4C184.764 0.887999 186.62 0.631999 188.636 0.631999C190.428 0.631999 192.188 0.855999 193.916 1.304C195.644 1.72 197.164 2.344 198.476 3.176C199.116 3.56 199.548 4.056 199.772 4.664C200.028 5.24 200.108 5.832 200.012 6.44C199.948 7.016 199.708 7.528 199.292 7.976C198.908 8.424 198.412 8.712 197.804 8.84C197.196 8.968 196.46 8.824 195.596 8.408C194.54 7.864 193.42 7.464 192.236 7.208C191.052 6.952 189.836 6.824 188.588 6.824C187.244 6.824 186.092 7 185.132 7.352C184.204 7.704 183.484 8.2 182.972 8.84C182.492 9.48 182.252 10.216 182.252 11.048C182.252 11.976 182.588 12.728 183.26 13.304C183.932 13.88 185.1 14.344 186.764 14.696L192.188 15.848C195.324 16.52 197.66 17.608 199.196 19.112C200.732 20.584 201.5 22.536 201.5 24.968C201.5 26.568 201.18 28.024 200.54 29.336C199.9 30.616 198.972 31.72 197.756 32.648C196.54 33.576 195.084 34.296 193.388 34.808C191.692 35.288 189.788 35.528 187.676 35.528ZM209.546 35C208.362 35 207.482 34.728 206.906 34.184C206.362 33.608 206.09 32.776 206.09 31.688C206.09 30.984 206.266 30.328 206.618 29.72C206.97 29.112 207.45 28.488 208.058 27.848L217.082 18.344C218.426 16.904 219.386 15.624 219.962 14.504C220.57 13.384 220.874 12.264 220.874 11.144C220.874 9.736 220.41 8.664 219.482 7.928C218.586 7.192 217.274 6.824 215.546 6.824C214.618 6.824 213.658 6.968 212.666 7.256C211.706 7.512 210.698 7.944 209.642 8.552C208.938 8.936 208.282 9.08 207.674 8.984C207.098 8.856 206.602 8.584 206.186 8.168C205.77 7.72 205.498 7.192 205.37 6.584C205.242 5.976 205.306 5.368 205.562 4.76C205.818 4.152 206.298 3.64 207.002 3.224C208.41 2.36 209.946 1.72 211.61 1.304C213.274 0.855999 214.922 0.631999 216.554 0.631999C219.082 0.631999 221.21 1.016 222.938 1.784C224.666 2.52 225.978 3.608 226.874 5.048C227.77 6.488 228.218 8.248 228.218 10.328C228.218 11.672 228.01 12.984 227.594 14.264C227.178 15.544 226.522 16.84 225.626 18.152C224.762 19.432 223.61 20.808 222.17 22.28L213.77 30.824V28.904H226.778C227.802 28.904 228.57 29.16 229.082 29.672C229.626 30.184 229.898 30.936 229.898 31.928C229.898 32.92 229.626 33.688 229.082 34.232C228.57 34.744 227.802 35 226.778 35H209.546ZM238.903 35C237.687 35 236.743 34.664 236.071 33.992C235.431 33.32 235.111 32.392 235.111 31.208V4.856C235.111 3.608 235.431 2.664 236.071 2.024C236.711 1.384 237.639 1.064 238.855 1.064C240.039 1.064 240.951 1.384 241.591 2.024C242.231 2.664 242.551 3.608 242.551 4.856V28.712H255.415C256.439 28.712 257.223 28.984 257.767 29.528C258.343 30.072 258.631 30.84 258.631 31.832C258.631 32.856 258.343 33.64 257.767 34.184C257.223 34.728 256.439 35 255.415 35H238.903ZM262.977 35.432C262.081 35.432 261.345 35.224 260.769 34.808C260.225 34.392 259.873 33.832 259.713 33.128C259.585 32.424 259.729 31.64 260.145 30.776L272.433 3.848C272.945 2.76 273.553 1.976 274.257 1.496C274.961 0.983998 275.777 0.727998 276.705 0.727998C277.633 0.727998 278.449 0.983998 279.153 1.496C279.857 1.976 280.449 2.76 280.929 3.848L293.313 30.776C293.729 31.64 293.873 32.44 293.745 33.176C293.649 33.88 293.329 34.44 292.785 34.856C292.241 35.24 291.537 35.432 290.673 35.432C289.585 35.432 288.737 35.176 288.129 34.664C287.553 34.152 287.041 33.352 286.593 32.264L283.713 25.592L286.689 27.656H266.673L269.649 25.592L266.817 32.264C266.337 33.384 265.825 34.2 265.281 34.712C264.769 35.192 264.001 35.432 262.977 35.432ZM276.609 9.08L270.465 23.72L269.169 21.848H284.193L282.897 23.72L276.705 9.08H276.609ZM306.169 35.432C304.953 35.432 304.025 35.096 303.385 34.424C302.745 33.752 302.425 32.808 302.425 31.592V7.304H293.929C292.937 7.304 292.169 7.032 291.625 6.488C291.081 5.944 290.809 5.192 290.809 4.232C290.809 3.24 291.081 2.488 291.625 1.976C292.169 1.432 292.937 1.16 293.929 1.16H318.361C319.353 1.16 320.121 1.432 320.665 1.976C321.209 2.488 321.481 3.24 321.481 4.232C321.481 5.192 321.209 5.944 320.665 6.488C320.121 7.032 319.353 7.304 318.361 7.304H309.865V31.592C309.865 32.808 309.545 33.752 308.905 34.424C308.297 35.096 307.385 35.432 306.169 35.432ZM328.577 35C327.329 35 326.369 34.664 325.697 33.992C325.025 33.32 324.689 32.36 324.689 31.112V5.048C324.689 3.8 325.025 2.84 325.697 2.168C326.369 1.496 327.329 1.16 328.577 1.16H345.329C346.289 1.16 347.009 1.416 347.489 1.928C348.001 2.408 348.257 3.112 348.257 4.04C348.257 5 348.001 5.736 347.489 6.248C347.009 6.728 346.289 6.968 345.329 6.968H331.793V14.888H344.225C345.217 14.888 345.953 15.144 346.433 15.656C346.945 16.136 347.201 16.856 347.201 17.816C347.201 18.776 346.945 19.512 346.433 20.024C345.953 20.504 345.217 20.744 344.225 20.744H331.793V29.192H345.329C346.289 29.192 347.009 29.448 347.489 29.96C348.001 30.44 348.257 31.144 348.257 32.072C348.257 33.032 348.001 33.768 347.489 34.28C347.009 34.76 346.289 35 345.329 35H328.577Z" fill="#F1E8B0"/>
</svg>
