<svg width="64" height="16" viewBox="0 0 64 16" fill="none" xmlns="http://www.w3.org/2000/svg">
<path fill-rule="evenodd" clip-rule="evenodd" d="M11.138 2.19526C11.3984 2.45561 11.3984 2.87772 11.138 3.13807L6.2761 8L11.138 12.8619C11.3984 13.1223 11.3984 13.5444 11.138 13.8047C10.8777 14.0651 10.4556 14.0651 10.1952 13.8047L4.86189 8.47141C4.60154 8.21106 4.60154 7.78895 4.86189 7.5286L10.1952 2.19526C10.4556 1.93491 10.8777 1.93491 11.138 2.19526Z" fill="#895E2D" fill-opacity="0.5"/>
<path fill-rule="evenodd" clip-rule="evenodd" d="M52.8619 2.19526C53.1222 1.93491 53.5443 1.93491 53.8047 2.19526L59.138 7.5286C59.3984 7.78895 59.3984 8.21106 59.138 8.47141L53.8047 13.8047C53.5443 14.0651 53.1222 14.0651 52.8619 13.8047C52.6015 13.5444 52.6015 13.1223 52.8619 12.8619L57.7238 8L52.8619 3.13807C52.6015 2.87772 52.6015 2.45561 52.8619 2.19526Z" fill="#895E2D"/>
</svg>
