<svg width="28" height="21" viewBox="0 0 28 21" fill="none" xmlns="http://www.w3.org/2000/svg">
<path d="M5.08 1.568C5.72 0.735996 6.36 0.287996 7 0.223997C7.704 0.0959988 8.28 0.223999 8.728 0.607998C9.24 0.927998 9.528 1.44 9.592 2.144C9.656 2.848 9.368 3.616 8.728 4.44799C7.704 5.792 6.968 7.168 6.52 8.576C6.136 9.92 5.944 11.168 5.944 12.32L5.656 10.4C7.32 10.4 8.664 10.88 9.688 11.84C10.712 12.736 11.224 13.984 11.224 15.584C11.224 17.12 10.744 18.4 9.784 19.424C8.824 20.384 7.576 20.864 6.04 20.864C4.376 20.864 3.064 20.32 2.104 19.232C1.208 18.08 0.76 16.448 0.76 14.336C0.76 12.992 0.856 11.616 1.048 10.208C1.304 8.736 1.752 7.264 2.392 5.792C3.096 4.32 3.992 2.912 5.08 1.568ZM21.016 1.568C21.656 0.735996 22.296 0.287996 22.936 0.223997C23.64 0.0959988 24.216 0.223999 24.664 0.607998C25.176 0.927998 25.464 1.44 25.528 2.144C25.592 2.848 25.304 3.616 24.664 4.44799C23.64 5.792 22.904 7.168 22.456 8.576C22.072 9.92 21.88 11.168 21.88 12.32L21.592 10.4C23.256 10.4 24.6 10.88 25.624 11.84C26.648 12.736 27.16 13.984 27.16 15.584C27.16 17.12 26.68 18.4 25.72 19.424C24.76 20.384 23.512 20.864 21.976 20.864C20.312 20.864 19 20.32 18.04 19.232C17.144 18.08 16.696 16.448 16.696 14.336C16.696 12.992 16.792 11.616 16.984 10.208C17.24 8.736 17.688 7.264 18.328 5.792C19.032 4.32 19.928 2.912 21.016 1.568Z" fill="#E09137"/>
</svg>
