<svg width="33" height="22" viewBox="0 0 33 22" fill="none" xmlns="http://www.w3.org/2000/svg">
<path d="M6.79804 20.2781C6.15804 21.1101 5.48604 21.5901 4.78204 21.7181C4.07804 21.7821 3.47004 21.6541 2.95804 21.3341C2.44604 20.9501 2.15804 20.4061 2.09404 19.7021C2.09404 18.9981 2.41404 18.2301 3.05404 17.3981C4.07804 16.0541 4.78204 14.7101 5.16604 13.3661C5.55004 11.9581 5.74204 10.7101 5.74204 9.62214L6.12604 11.5421C4.46204 11.5421 3.11804 11.0621 2.09404 10.1021C1.13404 9.07814 0.654043 7.79814 0.654043 6.26214C0.654043 4.66214 1.10204 3.38214 1.99804 2.42214C2.95804 1.46214 4.20604 0.982138 5.74204 0.982138C7.40604 0.982138 8.71804 1.55814 9.67804 2.71014C10.638 3.79814 11.118 5.39814 11.118 7.51014C11.118 8.85414 10.99 10.2621 10.734 11.7341C10.478 13.1421 10.03 14.5821 9.39004 16.0541C8.75004 17.5261 7.88604 18.9341 6.79804 20.2781ZM28.6418 20.2781C28.0018 21.1101 27.3298 21.5901 26.6258 21.7181C25.9218 21.7821 25.3138 21.6541 24.8018 21.3341C24.2898 20.9501 24.0018 20.4061 23.9378 19.7021C23.9378 18.9981 24.2578 18.2301 24.8978 17.3981C25.9218 16.0541 26.6258 14.7101 27.0098 13.3661C27.3938 11.9581 27.5858 10.7101 27.5858 9.62214L27.9698 11.5421C26.3058 11.5421 24.9618 11.0621 23.9378 10.1021C22.9778 9.07814 22.4978 7.79814 22.4978 6.26214C22.4978 4.66214 22.9458 3.38214 23.8418 2.42214C24.8018 1.46214 26.0498 0.982138 27.5858 0.982138C29.2498 0.982138 30.5618 1.55814 31.5218 2.71014C32.4818 3.79814 32.9618 5.39814 32.9618 7.51014C32.9618 8.85414 32.8338 10.2621 32.5778 11.7341C32.3218 13.1421 31.8738 14.5821 31.2338 16.0541C30.5938 17.5261 29.7298 18.9341 28.6418 20.2781Z" fill="#E09137"/>
</svg>
