<svg width="34" height="33" viewBox="0 0 34 33" fill="none" xmlns="http://www.w3.org/2000/svg">
<path fill-rule="evenodd" clip-rule="evenodd" d="M17 23.4092C16.7994 23.4092 16.5164 23.5084 16.1673 23.6947C15.821 23.8795 15.4193 24.1446 14.9843 24.4643C14.1145 25.1035 13.1177 25.9568 12.1744 26.8113C11.2314 27.6655 10.343 28.52 9.69031 29.1609C9.364 29.4813 9.09665 29.7483 8.91091 29.9352C8.81804 30.0287 8.74557 30.1021 8.69634 30.1521L8.64027 30.2092L8.62237 30.2275L8.62125 30.2286C8.60145 30.2489 8.57089 30.2555 8.5442 30.2451C8.51751 30.2347 8.5 30.2096 8.5 30.1816V6.10199C8.5 4.24456 10.0348 2.75 11.9421 2.75H22.0579C23.9652 2.75 25.5 4.24456 25.5 6.10199V30.1816C25.5 30.2096 25.4825 30.2347 25.4558 30.2451C25.4291 30.2555 25.3986 30.249 25.3788 30.2287L25.3776 30.2275L25.3597 30.2092L25.3037 30.1521C25.2544 30.1021 25.182 30.0287 25.0891 29.9352C24.9033 29.7483 24.636 29.4813 24.3097 29.1609C23.657 28.52 22.7686 27.6655 21.8256 26.8113C20.8823 25.9568 19.8855 25.1035 19.0157 24.4643C18.5807 24.1446 18.179 23.8795 17.8327 23.6947C17.4836 23.5084 17.2006 23.4092 17 23.4092Z" stroke="#E09137" stroke-width="1.5" stroke-miterlimit="10" stroke-linejoin="round"/>
</svg>
