<svg width="33" height="33" viewBox="0 0 33 33" fill="none" xmlns="http://www.w3.org/2000/svg">
<path d="M26.125 22H22.6531C22.2406 22 21.8453 22.1891 21.5875 22.5156L17.5656 27.5344C17.0156 28.2219 15.9672 28.2219 15.4172 27.5344L11.3953 22.5156C11.1375 22.1891 10.7422 22 10.3297 22H6.875C4.58906 22 2.75 20.1609 2.75 17.875V8.25C2.75 5.96406 4.58906 4.125 6.875 4.125H26.125C28.4109 4.125 30.25 5.96406 30.25 8.25V17.875C30.25 20.1609 28.4109 22 26.125 22Z" stroke="#E09137" stroke-width="1.5" stroke-miterlimit="10"/>
<path d="M11 11H22" stroke="#E09137" stroke-width="1.5" stroke-miterlimit="10" stroke-linecap="round"/>
<path d="M11 15.125H22" stroke="#E09137" stroke-width="1.5" stroke-miterlimit="10" stroke-linecap="round"/>
</svg>
