<svg width="33" height="33" viewBox="0 0 33 33" fill="none" xmlns="http://www.w3.org/2000/svg">
<path fill-rule="evenodd" clip-rule="evenodd" d="M22.7555 4.24094C24.7422 4.24094 26.6476 5.02949 28.0533 6.43344C28.7497 7.12962 29.3022 7.95621 29.6791 8.86595C30.056 9.77566 30.25 10.7507 30.25 11.7355C30.25 12.7202 30.056 13.6952 29.6791 14.605C29.3022 15.5147 28.7497 16.3413 28.0533 17.0375L27.162 17.9371L25.9792 19.1116L16.558 28.5328L7.13687 19.1116L5.95401 17.9371L5.06273 17.0375C4.34179 16.3473 3.76589 15.5202 3.36883 14.6045C2.97178 13.6889 2.76155 12.7031 2.75046 11.7052C2.73938 10.7072 2.92767 9.71707 3.30428 8.79284C3.68091 7.86858 4.2383 7.02888 4.94373 6.32289C5.64917 5.6169 6.48847 5.05886 7.41241 4.68151C8.33636 4.30416 9.32633 4.1151 10.3243 4.1254C11.3223 4.13569 12.3082 4.34514 13.2241 4.74148C14.1401 5.13781 14.9677 5.71304 15.6584 6.43344L16.558 7.33309L17.4576 6.43344C18.8633 5.02949 20.7688 4.24094 22.7555 4.24094Z" stroke="#E09137" stroke-width="1.5" stroke-miterlimit="10" stroke-linecap="round" stroke-linejoin="round"/>
</svg>
