<svg width="25" height="14" viewBox="0 0 25 14" fill="none" xmlns="http://www.w3.org/2000/svg">
<path fill-rule="evenodd" clip-rule="evenodd" d="M2.77778 7C2.77778 6.2268 3.3996 5.6 4.16667 5.6H20.8333C21.6004 5.6 22.2222 6.2268 22.2222 7C22.2222 7.7732 21.6004 8.4 20.8333 8.4H4.16667C3.3996 8.4 2.77778 7.7732 2.77778 7Z" fill="#6A461D" fill-opacity="0.6"/>
<path fill-rule="evenodd" clip-rule="evenodd" d="M0 1.4C0 0.626801 0.621827 0 1.38889 0H23.6111C24.3782 0 25 0.626801 25 1.4C25 2.1732 24.3782 2.8 23.6111 2.8H1.38889C0.621827 2.8 0 2.1732 0 1.4Z" fill="#6A461D" fill-opacity="0.6"/>
<path fill-rule="evenodd" clip-rule="evenodd" d="M5.55556 12.6C5.55556 11.8268 6.17738 11.2 6.94444 11.2H18.0556C18.8226 11.2 19.4444 11.8268 19.4444 12.6C19.4444 13.3732 18.8226 14 18.0556 14H6.94444C6.17738 14 5.55556 13.3732 5.55556 12.6Z" fill="#6A461D" fill-opacity="0.6"/>
</svg>
